<?xml version="1.0" standalone="no"?><!DOCTYPE svg PUBLIC "-//W3C//DTD SVG 1.1//EN" "http://www.w3.org/Graphics/SVG/1.1/DTD/svg11.dtd"><svg t="1706011284405" class="icon" viewBox="0 0 1024 1024" version="1.1" xmlns="http://www.w3.org/2000/svg" p-id="1176" xmlns:xlink="http://www.w3.org/1999/xlink" width="200" height="200"><path d="M330.88 225.92c-8.576 0-15.274667 2.56-20.053333 7.637333a28.288 28.288 0 0 0-7.253334 20.266667v61.866667c0 8.405333 2.432 15.146667 7.253334 20.224 4.778667 5.12 11.477333 7.637333 20.053333 7.637333h235.648c8.32 0 14.933333-2.56 19.754667-7.637333a28.202667 28.202667 0 0 0 7.253333-20.266667v-61.866667a28.202667 28.202667 0 0 0-7.253333-20.224 25.984 25.984 0 0 0-19.754667-7.637333H330.88z m0 151.125333c-8.576 0-15.274667 2.517333-20.053333 7.466667a27.733333 27.733333 0 0 0-7.253334 20.138667v62.165333c0 8.490667 2.432 15.189333 7.253334 20.138667 4.778667 4.949333 11.477333 7.424 20.053333 7.424h362.88c8.362667 0 14.933333-2.474667 19.754667-7.424 4.778667-4.949333 7.168-11.776 7.168-20.48v-61.866667a27.733333 27.733333 0 0 0-7.168-20.053333c-4.821333-4.992-11.392-7.509333-19.754667-7.509334H330.88z m0 151.168c-8.576 0-15.274667 2.432-20.053333 7.253334-4.821333 4.778667-7.253333 11.434667-7.253334 19.925333v62.549333a27.733333 27.733333 0 0 0 7.253334 20.138667c4.778667 4.949333 11.477333 7.424 20.053333 7.424h297.728c8.362667 0 14.933333-2.474667 19.754667-7.424a27.733333 27.733333 0 0 0 7.210666-20.138667v-62.549333c0-8.490667-2.432-15.146667-7.253333-19.968-4.778667-4.778667-11.349333-7.210667-19.712-7.210667H330.88z m0 150.826667c-8.576 0-15.274667 2.56-20.053333 7.637333a28.288 28.288 0 0 0-7.253334 20.266667v61.866667c0 8.405333 2.432 15.146667 7.253334 20.224 4.778667 5.12 11.477333 7.68 20.053333 7.68h175.786667c8.106667 0 14.677333-2.56 19.626666-7.68a27.861333 27.861333 0 0 0 7.381334-20.266667v-61.866667a27.861333 27.861333 0 0 0-7.424-20.224 26.112 26.112 0 0 0-19.584-7.637333h-175.786667zM170.666667 809.514667c0 42.666667 10.88 74.837333 32.682666 96.554666 21.802667 21.76 54.058667 32.597333 96.682667 32.597334h423.936c42.666667 0 74.837333-10.88 96.64-32.597334 21.802667-21.717333 32.725333-53.888 32.725333-96.554666V214.826667c0-42.453333-10.922667-74.666667-32.725333-96.597334-21.76-21.930667-54.016-32.896-96.64-32.896H300.032c-42.666667 0-74.88 10.965333-96.682667 32.896C181.589333 140.202667 170.666667 172.373333 170.666667 214.826667v594.688z m78.208-4.864V219.690667c0-18.346667 4.821333-32.384 14.378666-42.197334 9.6-9.813333 24.064-14.677333 43.392-14.677333h410.794667c19.285333 0 33.706667 4.906667 43.306667 14.677333 9.557333 9.813333 14.336 23.893333 14.336 42.197334v584.96c0 18.304-4.778667 32.298667-14.336 41.984-9.6 9.685333-24.021333 14.549333-43.306667 14.549333H306.645333c-19.328 0-33.792-4.864-43.392-14.506667-9.557333-9.728-14.378667-23.722667-14.378666-42.026666z" p-id="1177"></path></svg>